# xmcd
#
# Track frame offsets: 
#        150
#        19735
#        33165
#        52127
#        116327
#        130890
#        148842
#        168942
#        177715
#        195832
#        246765
#        253172
#        266750
#        295022
#
# Disc length: 4110 seconds
#
# Revision: 4
# Processed by: cddbd v1.5.2PL0 Copyright (c) Steve Scherf et al.
# Submitted via: ExactAudioCopy v0.99pb5
#
DISCID=cc100c0e
DTITLE=Jimi Hendrix - Astro Man - Studio Outtakes Vol.3 1969-1970
DYEAR=2003
DGENRE=Classic Rock
TTITLE0=Ezy Rider (7)
TTITLE1=Room Full Of Mirrors (3)
TTITLE2=Earth Blues (5)
TTITLE3=Highway Of Broken Hearts (i) (7$_Desire_Midnight Lightning (3i
TTITLE3=)
TTITLE4=Bleeding Heart (4)
TTITLE5=Freedom (1)
TTITLE6=Valleys Of Neptune (23)
TTITLE7=Further On Up The Road (1) (w.Astro Man intro_end)
TTITLE8=Dolly Dagger (2)
TTITLE9=Astro Man (3i)
TTITLE10=Send My Love To Linda (2)
TTITLE11=Drifter's Escape (2)
TTITLE12=Midnight Lightning Jam (5)
TTITLE13=Lover Man (7)
EXTD=Studio Outtakes 1969-70 [CD3]
EXTT0=
EXTT1=
EXTT2=
EXTT3=
EXTT4=
EXTT5=
EXTT6=
EXTT7=
EXTT8=
EXTT9=
EXTT10=
EXTT11=
EXTT12=
EXTT13=
PLAYORDER=
